<svg width="19" height="19" viewBox="0 0 19 19" fill="none" xmlns="http://www.w3.org/2000/svg">
<path d="M14.7874 3.733H3.54411C3.23364 3.733 2.98195 3.98469 2.98195 4.29516V15.5384C2.98195 15.8489 3.23364 16.1006 3.54411 16.1006H14.7874C15.0978 16.1006 15.3495 15.8489 15.3495 15.5384V4.29516C15.3495 3.98469 15.0978 3.733 14.7874 3.733Z" stroke="#727272" stroke-width="1.34919" stroke-linecap="round" stroke-linejoin="round"/>
<path d="M12.5387 2.60867V4.85732" stroke="#727272" stroke-width="1.34919" stroke-linecap="round" stroke-linejoin="round"/>
<path d="M5.79276 2.60867V4.85732" stroke="#727272" stroke-width="1.34919" stroke-linecap="round" stroke-linejoin="round"/>
<path d="M2.98195 7.10596H15.3495" stroke="#727272" stroke-width="1.34919" stroke-linecap="round" stroke-linejoin="round"/>
<path d="M6.636 9.91656H8.60357L7.47925 11.322C7.66411 11.322 7.84613 11.3676 8.00917 11.4547C8.17222 11.5418 8.31126 11.6678 8.41399 11.8215C8.51672 11.9752 8.57997 12.1519 8.59813 12.3358C8.61629 12.5198 8.58881 12.7054 8.51812 12.8762C8.44742 13.0471 8.3357 13.1978 8.19284 13.3151C8.04998 13.4325 7.88039 13.5128 7.69909 13.5489C7.5178 13.5851 7.33038 13.5759 7.15344 13.5224C6.97651 13.4688 6.81551 13.3724 6.68471 13.2418" stroke="#727272" stroke-width="1.34919" stroke-linecap="round" stroke-linejoin="round"/>
<path d="M10.2901 10.7598L11.4144 9.91656V13.5706" stroke="#727272" stroke-width="1.34919" stroke-linecap="round" stroke-linejoin="round"/>
</svg>
