<svg width="18" height="16" viewBox="0 0 18 16" fill="none" xmlns="http://www.w3.org/2000/svg">
<path d="M9.23032 9.05193C8.96388 9.05603 8.68924 9.02323 8.40641 8.95355C8.12767 8.87977 7.82023 8.76704 7.48411 8.61537L1.40924 5.83618C1.18789 5.74191 1.01983 5.60459 0.905054 5.42423C0.794378 5.23977 0.73904 5.04506 0.73904 4.8401C0.73904 4.63515 0.794378 4.44249 0.905054 4.26213C1.01983 4.08177 1.18789 3.9424 1.40924 3.84402L7.48411 1.06483C7.82023 0.917266 8.12767 0.80864 8.40641 0.738955C8.68924 0.665171 8.96388 0.630329 9.23032 0.634428C9.49677 0.630329 9.77141 0.665171 10.0542 0.738955C10.3371 0.80864 10.6466 0.917266 10.9827 1.06483L17.0576 3.84402C17.2789 3.9424 17.4449 4.08177 17.5556 4.26213C17.6704 4.44249 17.7278 4.63515 17.7278 4.8401C17.7278 5.04506 17.6704 5.23977 17.5556 5.42423C17.4449 5.60459 17.2789 5.74191 17.0576 5.83618L10.9827 8.61537C10.6466 8.76704 10.3371 8.87977 10.0542 8.95355C9.77141 9.02323 9.49677 9.05603 9.23032 9.05193ZM9.23032 7.86524C9.42708 7.86524 9.62589 7.83859 9.82674 7.78531C10.0317 7.72792 10.2633 7.64184 10.5215 7.52706L16.0123 5.03071C16.1066 4.98562 16.1537 4.92209 16.1537 4.8401C16.1537 4.76222 16.1066 4.70073 16.0123 4.65564L10.5215 2.15929C10.2633 2.04042 10.0317 1.95434 9.82674 1.90105C9.62589 1.84776 9.42708 1.82112 9.23032 1.82112C9.03357 1.82112 8.83476 1.84776 8.63391 1.90105C8.43305 1.95434 8.2035 2.04042 7.94526 2.15929L2.45451 4.65564C2.36023 4.70073 2.31309 4.76222 2.31309 4.8401C2.31309 4.92209 2.36023 4.98562 2.45451 5.03071L7.94526 7.52706C8.2035 7.64184 8.43305 7.72792 8.63391 7.78531C8.83476 7.83859 9.03357 7.86524 9.23032 7.86524ZM3.15546 9.40855V6.19281H4.32985V9.40855C4.32985 9.72008 4.44463 10.0214 4.67418 10.3124C4.90782 10.5993 5.23985 10.8555 5.67026 11.081C6.10066 11.3023 6.61715 11.4786 7.21972 11.6098C7.82228 11.745 8.49249 11.8127 9.23032 11.8127C9.97226 11.8127 10.6425 11.745 11.2409 11.6098C11.8435 11.4786 12.36 11.3023 12.7904 11.081C13.2249 10.8555 13.5569 10.5993 13.7865 10.3124C14.0201 10.0214 14.1369 9.72008 14.1369 9.40855V6.19281H15.3113V9.40855C15.3113 9.89634 15.1638 10.3534 14.8686 10.7797C14.5776 11.2019 14.1636 11.5729 13.6266 11.8926C13.0896 12.2164 12.4481 12.4685 11.7021 12.6489C10.956 12.8292 10.1321 12.9194 9.23032 12.9194C8.32852 12.9194 7.5046 12.8292 6.75857 12.6489C6.01663 12.4685 5.37512 12.2164 4.83404 11.8926C4.29706 11.5729 3.88305 11.2019 3.59201 10.7797C3.30098 10.3534 3.15546 9.89634 3.15546 9.40855ZM9.24877 5.62098C9.01922 5.62098 8.79787 5.58819 8.58472 5.5226C8.37566 5.45292 8.2035 5.36069 8.06823 5.24591C7.93706 5.12704 7.87147 4.99177 7.87147 4.8401C7.87147 4.69254 7.93706 4.56137 8.06823 4.44659C8.2035 4.33182 8.37566 4.24164 8.58472 4.17605C8.79787 4.11046 9.01922 4.07767 9.24877 4.07767C9.48242 4.07767 9.70377 4.11046 9.91282 4.17605C10.126 4.24164 10.2981 4.33182 10.4293 4.44659C10.5605 4.56137 10.6261 4.69254 10.6261 4.8401C10.6261 4.99177 10.5605 5.12704 10.4293 5.24591C10.2981 5.36069 10.128 5.45292 9.91897 5.5226C9.70992 5.58819 9.48652 5.62098 9.24877 5.62098ZM5.67026 7.1151L4.76641 6.63551L8.71999 4.58801L9.1258 5.30125L5.67026 7.1151ZM4.76641 13.1223V6.6601L5.67026 7.1151V13.1285L4.76641 13.1223ZM4.22532 13.2699C4.22532 13.0117 4.30321 12.8026 4.45897 12.6427C4.61884 12.487 4.82994 12.4091 5.09228 12.4091H5.33823C5.59647 12.4091 5.80348 12.487 5.95924 12.6427C6.11911 12.8026 6.19904 13.0117 6.19904 13.2699V14.9177C6.19904 15.1801 6.11911 15.3891 5.95924 15.5449C5.80348 15.7048 5.59647 15.7847 5.33823 15.7847H5.09228C4.82994 15.7847 4.61884 15.7048 4.45897 15.5449C4.30321 15.3891 4.22532 15.1801 4.22532 14.9177V13.2699Z" fill="#727272"/>
</svg>
