<svg width="14" height="14" viewBox="0 0 14 14" fill="none" xmlns="http://www.w3.org/2000/svg">
<path d="M6.3958 13.5496C6.12936 13.5496 5.89776 13.4717 5.701 13.3159C5.50424 13.1643 5.37717 12.9614 5.31978 12.7072L5.07384 11.6619L4.93857 11.6189L4.03472 12.1723C3.80517 12.3157 3.56537 12.369 3.31532 12.3321C3.06938 12.2994 2.85418 12.1887 2.66972 12.0001L1.80276 11.1393C1.6101 10.9467 1.49737 10.7273 1.46458 10.4814C1.43589 10.2314 1.49327 9.99566 1.63674 9.77431L2.19627 8.87661L2.14708 8.74748L1.11411 8.50154C0.859964 8.44005 0.655009 8.31093 0.499243 8.11417C0.347576 7.91742 0.271743 7.68582 0.271743 7.41938V6.21424C0.271743 5.9478 0.347576 5.7162 0.499243 5.51944C0.65091 5.32269 0.855865 5.19356 1.11411 5.13208L2.14093 4.87998L2.19012 4.74471L1.63059 3.84701C1.49123 3.62566 1.43589 3.39201 1.46458 3.14606C1.49737 2.90012 1.6101 2.67877 1.80276 2.48201L2.66357 1.61505C2.85213 1.43059 3.06938 1.32197 3.31532 1.28917C3.56127 1.25228 3.79697 1.30352 4.02242 1.44289L4.92627 2.00242L5.07384 1.94708L5.31978 0.901808C5.37717 0.651763 5.50424 0.448858 5.701 0.293092C5.89776 0.137326 6.12936 0.0594431 6.3958 0.0594431H7.65012C7.91656 0.0594431 8.14816 0.137326 8.34492 0.293092C8.54168 0.444758 8.66875 0.647664 8.72614 0.901808L8.96593 1.94708L9.1135 2.00242L10.0235 1.44289C10.2449 1.30352 10.4785 1.25228 10.7244 1.28917C10.9745 1.32197 11.1917 1.43059 11.3762 1.61505L12.2432 2.48201C12.4358 2.67877 12.5465 2.90012 12.5752 3.14606C12.608 3.39201 12.5547 3.62566 12.4153 3.84701L11.8496 4.74471L11.905 4.87998L12.9318 5.13208C13.186 5.19356 13.3889 5.32269 13.5405 5.51944C13.6963 5.7162 13.7742 5.9478 13.7742 6.21424V7.41938C13.7742 7.68582 13.6963 7.91742 13.5405 8.11417C13.3889 8.31093 13.186 8.44005 12.9318 8.50154L11.8988 8.74748L11.8435 8.87661L12.4092 9.77431C12.5485 9.99566 12.6018 10.2314 12.569 10.4814C12.5403 10.7273 12.4317 10.9467 12.2432 11.1393L11.3762 12.0001C11.1876 12.1887 10.9683 12.2994 10.7183 12.3321C10.4724 12.369 10.2387 12.3157 10.0174 12.1723L9.10735 11.6189L8.96593 11.6619L8.72614 12.7072C8.66875 12.9614 8.54168 13.1643 8.34492 13.3159C8.14816 13.4717 7.91656 13.5496 7.65012 13.5496H6.3958ZM6.59255 12.3198H7.45337C7.55174 12.3198 7.60708 12.2727 7.61938 12.1784L7.9883 10.672C8.19735 10.6269 8.39411 10.5654 8.57857 10.4876C8.76303 10.4097 8.93724 10.3195 9.1012 10.217L10.417 11.0225C10.4949 11.0758 10.5687 11.0676 10.6384 10.9979L11.2409 10.3953C11.3065 10.3338 11.3127 10.2621 11.2594 10.1801L10.4478 8.86431C10.542 8.70854 10.6281 8.53638 10.706 8.34782C10.7839 8.15516 10.8474 7.96046 10.8966 7.7637L12.4092 7.40708C12.4994 7.39068 12.5444 7.33329 12.5444 7.23492V6.39255C12.5444 6.29827 12.4994 6.24293 12.4092 6.22654L10.8966 5.85762C10.8515 5.65266 10.788 5.45591 10.706 5.26735C10.624 5.07469 10.54 4.90458 10.4539 4.75701L11.2655 3.4412C11.3188 3.35922 11.3127 3.28543 11.2471 3.21985L10.6445 2.62343C10.5748 2.56194 10.499 2.55374 10.417 2.59884L9.1012 3.39816C8.94134 3.30388 8.76713 3.21575 8.57857 3.13377C8.39411 3.05179 8.19735 2.98825 7.9883 2.94316L7.61938 1.43059C7.60708 1.33631 7.55174 1.28917 7.45337 1.28917H6.59255C6.49418 1.28917 6.43679 1.33631 6.42039 1.43059L6.06377 2.93086C5.85882 2.98005 5.65386 3.04769 5.44891 3.13377C5.24805 3.21575 5.07589 3.30183 4.93242 3.39201L3.62276 2.59269C3.54077 2.5476 3.46494 2.55784 3.39526 2.62343L2.78654 3.2137C2.72505 3.27929 2.72095 3.35512 2.77424 3.4412L3.58586 4.75701C3.49978 4.90458 3.41575 5.07469 3.33377 5.26735C3.25179 5.45591 3.18825 5.65471 3.14316 5.86377L1.63674 6.22654C1.54656 6.24293 1.50147 6.29827 1.50147 6.39255V7.23492C1.50147 7.33329 1.54656 7.39068 1.63674 7.40708L3.14931 7.7637C3.1944 7.96456 3.25589 8.15926 3.33377 8.34782C3.41165 8.53228 3.49773 8.70444 3.59201 8.86431L2.77424 10.1801C2.72915 10.2662 2.73735 10.34 2.79884 10.4015L3.40141 11.004C3.47519 11.0737 3.54897 11.0819 3.62276 11.0286L4.94472 10.217C5.10458 10.3195 5.27879 10.4117 5.46735 10.4937C5.66001 10.5716 5.85677 10.631 6.05762 10.672L6.42039 12.1784C6.43679 12.2727 6.49418 12.3198 6.59255 12.3198ZM7.02296 9.13485C6.59665 9.13485 6.20724 9.03032 5.85472 8.82127C5.50219 8.60811 5.21936 8.32528 5.0062 7.97275C4.79715 7.62023 4.69262 7.23082 4.69262 6.80451C4.69262 6.3823 4.79715 5.99494 5.0062 5.64242C5.21936 5.28989 5.50219 5.00911 5.85472 4.80005C6.20724 4.591 6.59665 4.48647 7.02296 4.48647C7.44927 4.48647 7.83868 4.591 8.1912 4.80005C8.54373 5.00911 8.82451 5.28989 9.03357 5.64242C9.24262 5.99494 9.34715 6.3823 9.34715 6.80451C9.34715 7.23082 9.24262 7.62023 9.03357 7.97275C8.82451 8.32528 8.54373 8.60811 8.1912 8.82127C7.83868 9.03032 7.44927 9.13485 7.02296 9.13485ZM7.02296 8.0035C7.23611 8.0035 7.43082 7.95021 7.60708 7.84363C7.78744 7.73296 7.93091 7.58744 8.03749 7.40708C8.14816 7.22262 8.2035 7.02176 8.2035 6.80451C8.2035 6.58726 8.14816 6.3905 8.03749 6.21424C7.93091 6.03388 7.78744 5.89041 7.60708 5.78384C7.43082 5.67316 7.23611 5.61782 7.02296 5.61782C6.80571 5.61782 6.6069 5.67111 6.42654 5.77769C6.24618 5.88426 6.10066 6.02773 5.98999 6.20809C5.88341 6.38845 5.83012 6.58726 5.83012 6.80451C5.83012 7.02586 5.88341 7.22672 5.98999 7.40708C6.10066 7.58744 6.24618 7.73296 6.42654 7.84363C6.6069 7.95021 6.80571 8.0035 7.02296 8.0035Z" fill="#727272"/>
</svg>
