<svg width="19" height="19" viewBox="0 0 19 19" fill="none" xmlns="http://www.w3.org/2000/svg">
<path d="M7.72141 11.6249H12.2187" stroke="#727272" stroke-width="1.34919" stroke-linecap="round" stroke-linejoin="round"/>
<path d="M7.72141 9.37622H12.2187" stroke="#727272" stroke-width="1.34919" stroke-linecap="round" stroke-linejoin="round"/>
<path d="M12.2188 3.75459H15.0295C15.1786 3.75459 15.3216 3.81382 15.427 3.91925C15.5324 4.02467 15.5917 4.16766 15.5917 4.31676V16.1222C15.5917 16.2713 15.5324 16.4142 15.427 16.5197C15.3216 16.6251 15.1786 16.6843 15.0295 16.6843H4.91059C4.76149 16.6843 4.61851 16.6251 4.51308 16.5197C4.40765 16.4142 4.34843 16.2713 4.34843 16.1222V4.31676C4.34843 4.16766 4.40765 4.02467 4.51308 3.91925C4.61851 3.81382 4.76149 3.75459 4.91059 3.75459H7.72125" stroke="#727272" stroke-width="1.34919" stroke-linecap="round" stroke-linejoin="round"/>
<path d="M7.15924 6.00325V5.44109C7.15924 4.69562 7.45538 3.98068 7.98251 3.45355C8.50964 2.92642 9.22458 2.63028 9.97005 2.63028C10.7155 2.63028 11.4305 2.92642 11.9576 3.45355C12.4847 3.98068 12.7809 4.69562 12.7809 5.44109V6.00325H7.15924Z" stroke="#727272" stroke-width="1.34919" stroke-linecap="round" stroke-linejoin="round"/>
</svg>
