<svg width="15" height="12" viewBox="0 0 15 12" fill="none" xmlns="http://www.w3.org/2000/svg">
<path d="M2.61956 11.0652C1.9771 11.0652 1.4875 10.8988 1.15079 10.566C0.817943 10.237 0.651521 9.75514 0.651521 9.12041V2.04359C0.651521 1.41273 0.812138 0.932815 1.13337 0.603841C1.45461 0.274866 1.89969 0.110379 2.46862 0.110379H4.09995C4.30894 0.110379 4.48891 0.12586 4.63985 0.156822C4.79467 0.183914 4.934 0.230358 5.05785 0.296153C5.18557 0.361948 5.32103 0.450964 5.46423 0.563203L5.77772 0.818642C5.94801 0.954102 6.10863 1.05086 6.25957 1.10891C6.41051 1.1631 6.59435 1.19019 6.81109 1.19019H12.0824C12.721 1.19019 13.2067 1.35661 13.5396 1.68946C13.8763 2.0223 14.0447 2.50609 14.0447 3.14082V9.12041C14.0447 9.75514 13.8821 10.237 13.557 10.566C13.2358 10.8988 12.7849 11.0652 12.2043 11.0652H2.61956ZM2.72406 9.77643H11.9721C12.2237 9.77643 12.4172 9.71257 12.5527 9.58485C12.6881 9.45326 12.7559 9.25394 12.7559 8.98689V3.28015C12.7559 3.00923 12.6881 2.80991 12.5527 2.68219C12.4172 2.5506 12.2237 2.4848 11.9721 2.4848H6.46276C6.25377 2.4848 6.07186 2.47126 5.91705 2.44416C5.76611 2.4132 5.62484 2.36482 5.49325 2.29903C5.36553 2.23323 5.23201 2.14422 5.09268 2.03198L4.77918 1.77654C4.60889 1.63721 4.44828 1.54045 4.29733 1.48627C4.15026 1.42821 3.97029 1.39919 3.75743 1.39919H2.71826C2.47056 1.39919 2.27898 1.46692 2.14352 1.60238C2.00806 1.73397 1.94033 1.92361 1.94033 2.17131V8.98689C1.94033 9.25394 2.00612 9.45326 2.13771 9.58485C2.27317 9.71257 2.46862 9.77643 2.72406 9.77643ZM1.47009 4.71989V3.62267H13.2435V4.71989H1.47009Z" fill="#727272"/>
</svg>
