<svg width="16" height="17" viewBox="0 0 16 17" fill="none" xmlns="http://www.w3.org/2000/svg">
<path d="M12.1755 13.758L7.55365 9.24706C7.4797 9.17804 7.42793 9.10655 7.39835 9.0326C7.36877 8.95865 7.35398 8.86991 7.35398 8.76638V2.14047H8.53718V7.8568L13.3883 5.07628L13.9873 6.10419L9.01785 8.94386L13.0703 12.9298L12.1755 13.758ZM7.93819 16.2501C6.88317 16.2501 5.8947 16.0504 4.97279 15.6511C4.05089 15.2567 3.2399 14.7095 2.53984 14.0094C1.83978 13.3143 1.29009 12.5058 0.890759 11.5839C0.496359 10.657 0.29916 9.66611 0.29916 8.61109C0.29916 7.55607 0.496359 6.56761 0.890759 5.6457C1.29009 4.71886 1.83978 3.90541 2.53984 3.20535C3.2399 2.50529 4.05089 1.95806 4.97279 1.56366C5.8947 1.16926 6.88317 0.972062 7.93819 0.972062C8.9932 0.972062 9.98167 1.16926 10.9036 1.56366C11.8304 1.95806 12.6439 2.50529 13.3439 3.20535C14.044 3.90541 14.5912 4.71886 14.9856 5.6457C15.3849 6.56761 15.5846 7.55607 15.5846 8.61109C15.5846 9.66611 15.3849 10.657 14.9856 11.5839C14.5912 12.5058 14.044 13.3143 13.3439 14.0094C12.6439 14.7095 11.8304 15.2567 10.9036 15.6511C9.98167 16.0504 8.9932 16.2501 7.93819 16.2501ZM7.93819 14.7415C8.78614 14.7415 9.57987 14.5813 10.3194 14.2609C11.0589 13.9453 11.7096 13.5066 12.2717 12.9446C12.8386 12.3825 13.2798 11.7318 13.5954 10.9923C13.9109 10.2528 14.0686 9.45905 14.0686 8.61109C14.0686 7.76313 13.9109 6.9694 13.5954 6.2299C13.2798 5.48547 12.8386 4.83471 12.2717 4.27762C11.7096 3.7156 11.0589 3.27683 10.3194 2.96131C9.57987 2.64086 8.78614 2.48064 7.93819 2.48064C7.09516 2.48064 6.30143 2.64086 5.557 2.96131C4.8175 3.27683 4.16674 3.7156 3.60472 4.27762C3.0427 4.83471 2.60147 5.48547 2.28102 6.2299C1.9655 6.9694 1.80774 7.76313 1.80774 8.61109C1.80774 9.45905 1.9655 10.2528 2.28102 10.9923C2.60147 11.7318 3.0427 12.3825 3.60472 12.9446C4.16674 13.5066 4.8175 13.9453 5.557 14.2609C6.30143 14.5813 7.09516 14.7415 7.93819 14.7415Z" fill="#727272"/>
</svg>
