<?xml version="1.0" encoding="UTF-8"?>
<svg id="_레이어_2" data-name="레이어 2" xmlns="http://www.w3.org/2000/svg" viewBox="0 0 1500 1500">
  <defs>
    <style>
      .cls-1 {
        fill: #eca641;
      }

      .cls-2 {
        fill: #f7da4a;
      }

      .cls-3 {
        fill: #fefefe;
      }
    </style>
  </defs>
  <g id="_레이어_3" data-name="레이어 3">
    <circle class="cls-3" cx="750" cy="750" r="750"/>
    <g id="_레이어_4" data-name="레이어 4">
      <g>
        <path class="cls-2" d="M479.43,745.98c0,154.13,124.94,279.07,279.07,279.07V466.89c-154.13,0-279.07,124.95-279.07,279.09Z"/>
        <path class="cls-1" d="M1037.59,745.98c0-154.13-124.94-279.09-279.09-279.09v558.16c154.15,0,279.09-124.94,279.09-279.07Z"/>
        <path class="cls-2" d="M758.5,164.99v-1.49c-22.69,10.25-146.68,74.67-108.96,245.71,0,0,51.91-15.64,108.96-19.95v-154.54c-12.07-29.96-15.07-55.85,0-69.73Z"/>
        <path class="cls-1" d="M874.54,409.21s-85.95-99.74-116.04-174.49v154.54c42.16-3.18,87.12-.18,116.04,19.95Z"/>
        <path class="cls-1" d="M758.5,1102.7v154.54c12.08,29.96,15.08,55.85,0,69.71v1.51c22.7-10.25,146.68-74.68,108.97-245.71,0,0-51.9,15.65-108.97,19.95Z"/>
        <path class="cls-2" d="M642.46,1082.75s85.95,99.75,116.04,174.49v-154.54c-42.16,3.17-87.11.18-116.04-19.95Z"/>
        <path class="cls-2" d="M443.33,584.9s77.45-144.45,159.11-159.12c0,0-269.03-19.89-254.37-95.26,0,0-66.99,150.74,95.26,254.37Z"/>
        <path class="cls-1" d="M1073.67,907.06s-77.45,144.47-159.1,159.1c0,0,269.02,19.91,254.38,95.26,0,0,66.97-150.72-95.28-254.36Z"/>
        <path class="cls-2" d="M421.74,854.94s-47.39-156.92-.01-225.01c0,0-204.27,176.16-247.21,112.51,0,0,59.22,153.95,247.23,112.51Z"/>
        <path class="cls-1" d="M1095.28,637.01s47.38,156.92-.02,225.01c0,0,204.32-176.17,247.24-112.51,0,0-59.21-153.95-247.22-112.5Z"/>
        <path class="cls-2" d="M438.32,902.06s-19.91,269.02-95.27,254.36c0,0,150.73,67,254.36-95.26,0,0-144.44-77.46-159.08-159.1Z"/>
        <path class="cls-1" d="M1078.68,589.91s19.91-269.04,95.26-254.37c0,0-150.73-67-254.36,95.25,0,0,144.47,77.47,159.09,159.13Z"/>
      </g>
    </g>
  </g>
</svg>