<svg width="21" height="11" viewBox="0 0 21 11" fill="none" xmlns="http://www.w3.org/2000/svg">
<path d="M7.2131 10.4701C6.25132 10.4701 5.77043 10.1224 5.77043 9.42682C5.77043 9.04078 5.88192 8.65807 6.10489 8.27868C6.32786 7.89597 6.63903 7.55153 7.03838 7.24536C7.44106 6.93586 7.91529 6.68793 8.46107 6.50156C9.00685 6.3152 9.60255 6.22202 10.2482 6.22202C10.8971 6.22202 11.4928 6.3152 12.0353 6.50156C12.5811 6.68793 13.0553 6.93586 13.458 7.24536C13.8607 7.55153 14.1735 7.89597 14.3964 8.27868C14.6194 8.65807 14.7309 9.04078 14.7309 9.42682C14.7309 10.1224 14.25 10.4701 13.2882 10.4701H7.2131ZM7.28797 9.2521H13.2134C13.2533 9.2521 13.2799 9.24379 13.2932 9.22715C13.3099 9.21051 13.3182 9.18721 13.3182 9.15726C13.3182 9.01083 13.2483 8.8411 13.1085 8.64808C12.9721 8.45506 12.7724 8.26704 12.5095 8.084C12.2466 7.89763 11.9238 7.74455 11.5411 7.62474C11.1617 7.50494 10.7307 7.44503 10.2482 7.44503C9.76562 7.44503 9.33466 7.50494 8.95527 7.62474C8.57589 7.74455 8.25474 7.89763 7.99183 8.084C7.72893 8.26704 7.52759 8.45506 7.38781 8.64808C7.25137 8.8411 7.18314 9.01083 7.18314 9.15726C7.18314 9.18721 7.1898 9.21051 7.20311 9.22715C7.21975 9.24379 7.24804 9.2521 7.28797 9.2521ZM10.2482 5.75777C9.82553 5.75777 9.44281 5.64961 9.10004 5.4333C8.75726 5.21365 8.48437 4.91913 8.28136 4.54973C8.07836 4.177 7.97686 3.76434 7.97686 3.31174C7.97353 2.86912 8.07503 2.46478 8.28136 2.0987C8.4877 1.73263 8.76225 1.43977 9.10503 1.22013C9.45113 1.00048 9.83218 0.890662 10.2482 0.890662C10.6675 0.890662 11.0485 1.00048 11.3913 1.22013C11.7374 1.43644 12.012 1.72764 12.215 2.09371C12.4213 2.45978 12.5245 2.86413 12.5245 3.30674C12.5245 3.76267 12.423 4.177 12.22 4.54973C12.017 4.91913 11.7441 5.21365 11.4013 5.4333C11.0585 5.64961 10.6742 5.75777 10.2482 5.75777ZM10.2482 4.54474C10.4412 4.54474 10.6159 4.49149 10.7723 4.385C10.9321 4.27517 11.0585 4.12708 11.1517 3.94072C11.2449 3.75102 11.2915 3.5397 11.2915 3.30674C11.2915 3.08377 11.2432 2.88243 11.1467 2.70272C11.0535 2.51969 10.9271 2.37492 10.7673 2.26843C10.6109 2.16193 10.4379 2.10869 10.2482 2.10869C10.0651 2.10869 9.89375 2.16193 9.73401 2.26843C9.57427 2.37492 9.44614 2.51969 9.34963 2.70272C9.25312 2.88243 9.20653 3.08377 9.20986 3.30674C9.20986 3.54303 9.25645 3.75435 9.34963 3.94072C9.44614 4.12708 9.5726 4.27517 9.72902 4.385C9.88876 4.49149 10.0618 4.54474 10.2482 4.54474ZM1.69704 10.4751C1.28105 10.4751 0.968221 10.3786 0.758561 10.1856C0.548901 9.9959 0.444071 9.72301 0.444071 9.36692C0.444071 8.95425 0.545573 8.55989 0.748577 8.18384C0.951582 7.80445 1.23113 7.46833 1.58722 7.17547C1.94663 6.88261 2.36263 6.65132 2.83519 6.4816C3.30776 6.30854 3.81527 6.22202 4.35773 6.22202C4.57071 6.22202 4.79868 6.24365 5.04162 6.28691C5.28788 6.32685 5.53082 6.38342 5.77043 6.45664C6.01005 6.52652 6.22969 6.60972 6.42937 6.70623C6.21971 6.83269 6.04166 6.97413 5.89523 7.13054C5.7488 7.28363 5.629 7.45335 5.53582 7.63972C5.44263 7.59978 5.32616 7.56318 5.18638 7.5299C5.04661 7.49662 4.90184 7.46999 4.75209 7.45003C4.60566 7.42673 4.4742 7.41508 4.35773 7.41508C3.99831 7.41508 3.66219 7.46667 3.34936 7.56983C3.03653 7.66967 2.76198 7.80612 2.5257 7.97917C2.28941 8.14889 2.10638 8.33859 1.97659 8.54825C1.8468 8.75791 1.7819 8.97089 1.7819 9.18721C1.7819 9.21051 1.78689 9.23214 1.79688 9.2521C1.81019 9.26874 1.83515 9.27706 1.87176 9.27706H4.93679C4.91682 9.48672 4.9501 9.7097 5.03662 9.94598C5.12648 10.1823 5.26459 10.3586 5.45095 10.4751H1.69704ZM4.36272 5.84762C3.98999 5.84762 3.6522 5.75111 3.34936 5.55809C3.04985 5.36507 2.81023 5.10549 2.63053 4.77936C2.45415 4.45322 2.36429 4.09047 2.36096 3.69112C2.36096 3.30175 2.45082 2.94566 2.63053 2.62285C2.81023 2.30004 3.05151 2.04379 3.35435 1.8541C3.66052 1.66108 3.99664 1.56457 4.36272 1.56457C4.72546 1.56457 5.05659 1.66108 5.35611 1.8541C5.65895 2.04379 5.90022 2.30004 6.07993 2.62285C6.26297 2.94234 6.35449 3.29676 6.35449 3.68613C6.35449 4.08548 6.26463 4.44989 6.08493 4.77936C5.90854 5.10549 5.66893 5.36507 5.36609 5.55809C5.06325 5.75111 4.72879 5.84762 4.36272 5.84762ZM4.36272 4.64957C4.50582 4.64957 4.63727 4.60797 4.75708 4.52477C4.88021 4.44157 4.97839 4.32676 5.0516 4.18033C5.12482 4.0339 5.16142 3.86917 5.16142 3.68613C5.16142 3.51308 5.12315 3.35666 5.04661 3.21689C4.97339 3.07712 4.87522 2.96563 4.75209 2.88243C4.63228 2.79923 4.50249 2.75763 4.36272 2.75763C4.21962 2.75763 4.0865 2.79923 3.96336 2.88243C3.84023 2.96563 3.74206 3.07878 3.66884 3.22188C3.59563 3.36166 3.55902 3.51807 3.55902 3.69112C3.55902 3.87416 3.59563 4.03889 3.66884 4.18532C3.74206 4.32842 3.83857 4.44157 3.95837 4.52477C4.08151 4.60797 4.21629 4.64957 4.36272 4.64957ZM18.8043 10.4751H15.0504C15.2401 10.3586 15.3782 10.1823 15.4647 9.94598C15.5546 9.7097 15.5895 9.48672 15.5695 9.27706H18.6296C18.6695 9.27706 18.6961 9.26874 18.7095 9.2521C18.7228 9.23214 18.7294 9.21051 18.7294 9.18721C18.7294 8.97089 18.6629 8.75791 18.5297 8.54825C18.3966 8.33859 18.2119 8.14889 17.9756 7.97917C17.7427 7.80612 17.4698 7.66967 17.157 7.56983C16.8441 7.46667 16.5064 7.41508 16.1436 7.41508C16.0305 7.41508 15.899 7.42673 15.7493 7.45003C15.6028 7.46999 15.4597 7.49662 15.32 7.5299C15.1802 7.56318 15.0654 7.59978 14.9755 7.63972C14.879 7.45335 14.7575 7.28363 14.6111 7.13054C14.4647 6.97413 14.2866 6.83269 14.077 6.70623C14.2766 6.60972 14.4963 6.52652 14.7359 6.45664C14.9755 6.38342 15.2168 6.32685 15.4597 6.28691C15.706 6.24365 15.934 6.22202 16.1436 6.22202C16.6894 6.22202 17.1986 6.30854 17.6711 6.4816C18.1437 6.65132 18.558 6.88261 18.9141 7.17547C19.2735 7.46833 19.5548 7.80445 19.7578 8.18384C19.9608 8.55989 20.0623 8.95425 20.0623 9.36692C20.0623 9.72301 19.9574 9.9959 19.7478 10.1856C19.5381 10.3786 19.2236 10.4751 18.8043 10.4751ZM16.1436 5.84762C15.7775 5.84762 15.4431 5.75111 15.1402 5.55809C14.8374 5.36507 14.5961 5.10549 14.4164 4.77936C14.24 4.44989 14.1518 4.08548 14.1518 3.68613C14.1518 3.29676 14.2417 2.94234 14.4214 2.62285C14.6011 2.30004 14.8424 2.04379 15.1452 1.8541C15.4481 1.66108 15.7809 1.56457 16.1436 1.56457C16.5097 1.56457 16.8441 1.66108 17.147 1.8541C17.4532 2.04379 17.6961 2.30004 17.8758 2.62285C18.0555 2.94566 18.1454 3.30175 18.1454 3.69112C18.142 4.09047 18.0505 4.45322 17.8708 4.77936C17.6911 5.10549 17.4515 5.36507 17.152 5.55809C16.8525 5.75111 16.5163 5.84762 16.1436 5.84762ZM16.1436 4.64957C16.29 4.64957 16.4232 4.60797 16.543 4.52477C16.6661 4.44157 16.7643 4.32842 16.8375 4.18532C16.9107 4.03889 16.9473 3.87416 16.9473 3.69112C16.9473 3.51807 16.9107 3.36166 16.8375 3.22188C16.7643 3.07878 16.6661 2.96563 16.543 2.88243C16.4198 2.79923 16.2867 2.75763 16.1436 2.75763C16.0038 2.75763 15.8724 2.79923 15.7493 2.88243C15.6294 2.96563 15.5313 3.07712 15.4547 3.21689C15.3815 3.35666 15.3449 3.51308 15.3449 3.68613C15.3449 3.86917 15.3815 4.0339 15.4547 4.18033C15.5279 4.32676 15.6245 4.44157 15.7443 4.52477C15.8674 4.60797 16.0005 4.64957 16.1436 4.64957Z" fill="#727272"/>
</svg>
