<svg width="15" height="14" viewBox="0 0 15 14" fill="none" xmlns="http://www.w3.org/2000/svg">
<path d="M4.69877 13.8116C4.45282 13.8116 4.26017 13.7317 4.1208 13.5718C3.98553 13.4119 3.91789 13.1947 3.91789 12.92V11.4075H3.58586C2.9915 11.4075 2.48116 11.2927 2.05485 11.0631C1.63264 10.8336 1.30677 10.5057 1.07722 10.0794C0.851766 9.64896 0.73904 9.12837 0.73904 8.5176V3.74625C0.73904 3.13549 0.851766 2.61695 1.07722 2.19064C1.30267 1.76024 1.62854 1.43026 2.05485 1.20071C2.48526 0.971163 3.00994 0.856388 3.62891 0.856388H11.6283C12.2432 0.856388 12.7658 0.971163 13.1962 1.20071C13.6266 1.43026 13.9545 1.76024 14.18 2.19064C14.4054 2.61695 14.5182 3.13549 14.5182 3.74625V8.5176C14.5182 9.12837 14.4054 9.64896 14.18 10.0794C13.9545 10.5057 13.6266 10.8336 13.1962 11.0631C12.7658 11.2927 12.2432 11.4075 11.6283 11.4075H7.82843L5.72559 13.2705C5.51654 13.455 5.33618 13.5902 5.18451 13.6763C5.03285 13.7665 4.87093 13.8116 4.69877 13.8116ZM5.00005 12.4527L6.94918 10.5221C7.08035 10.3909 7.20127 10.3048 7.31195 10.2638C7.42672 10.2187 7.57839 10.1962 7.76695 10.1962H11.5914C12.1735 10.1962 12.6039 10.0527 12.8826 9.76578C13.1655 9.47474 13.3069 9.04434 13.3069 8.47456V3.78314C13.3069 3.21747 13.1655 2.79116 12.8826 2.50423C12.6039 2.21319 12.1735 2.06767 11.5914 2.06767H3.65965C3.08168 2.06767 2.65127 2.21319 2.36843 2.50423C2.08969 2.79116 1.95032 3.21747 1.95032 3.78314V8.47456C1.95032 9.04434 2.08969 9.47474 2.36843 9.76578C2.65127 10.0527 3.08168 10.1962 3.65965 10.1962H4.50201C4.67418 10.1962 4.7992 10.2351 4.87708 10.313C4.95906 10.3868 5.00005 10.5159 5.00005 10.7004V12.4527ZM5.14762 8.56679C4.83609 8.56679 4.59219 8.48481 4.41593 8.32085C4.24377 8.15278 4.15769 7.91504 4.15769 7.6076V4.687C4.15769 4.37956 4.24787 4.14182 4.42823 3.97375C4.60859 3.80159 4.84839 3.71551 5.14762 3.71551H8.28958C8.60111 3.71551 8.83886 3.80159 9.00282 3.97375C9.17089 4.14182 9.25492 4.37956 9.25492 4.687V7.59531C9.25492 7.89864 9.16679 8.13639 8.99053 8.30855C8.81837 8.48071 8.57652 8.56679 8.26499 8.56679H5.14762ZM9.59924 7.01733V5.27112L10.6999 4.33037C10.7613 4.28528 10.8228 4.24839 10.8843 4.2197C10.9458 4.18691 11.0073 4.17051 11.0688 4.17051C11.1876 4.17051 11.284 4.20945 11.3578 4.28733C11.4315 4.36112 11.4684 4.4636 11.4684 4.59477V7.68754C11.4684 7.82281 11.4315 7.92938 11.3578 8.00727C11.284 8.08105 11.1876 8.11794 11.0688 8.11794C11.0073 8.11794 10.9458 8.1036 10.8843 8.0749C10.8228 8.04211 10.7613 8.00112 10.6999 7.95193L9.59924 7.01733Z" fill="#727272"/>
</svg>
