<svg width="19" height="19" viewBox="0 0 19 19" fill="none" xmlns="http://www.w3.org/2000/svg">
<path d="M11.1815 16.0141H3.54411C3.39502 16.0141 3.25203 15.9549 3.1466 15.8494C3.04118 15.744 2.98195 15.601 2.98195 15.4519V4.20868C2.98195 4.05958 3.04118 3.91659 3.1466 3.81117C3.25203 3.70574 3.39502 3.64651 3.54411 3.64651H14.7874C14.9364 3.64651 15.0794 3.70574 15.1849 3.81117C15.2903 3.91659 15.3495 4.05958 15.3495 4.20868V11.8461C15.3495 11.9199 15.335 11.993 15.3067 12.0612C15.2785 12.1294 15.2371 12.1914 15.1849 12.2436L11.579 15.8494C11.5268 15.9016 11.4649 15.943 11.3967 15.9713C11.3285 15.9995 11.2554 16.0141 11.1815 16.0141V16.0141Z" stroke="#727272" stroke-width="1.34919" stroke-linecap="round" stroke-linejoin="round"/>
<path d="M15.299 12.0784H11.4144V15.9629" stroke="#727272" stroke-width="1.34919" stroke-linecap="round" stroke-linejoin="round"/>
</svg>
