<svg width="17" height="13" viewBox="0 0 17 13" fill="none" xmlns="http://www.w3.org/2000/svg">
<path d="M7.95476 9.19839H7.058L5.31602 10.7291C5.103 10.9146 4.91574 11.0486 4.75426 11.1311C4.59621 11.2135 4.42957 11.2547 4.25434 11.2547C4.00009 11.2547 3.80081 11.174 3.6565 11.0125C3.5122 10.851 3.44004 10.6294 3.44004 10.3477V9.19839H3.29058C2.813 9.19839 2.39039 9.09703 2.02275 8.89432C1.65855 8.6916 1.37166 8.40127 1.16207 8.02333C0.955918 7.64538 0.852842 7.19528 0.852842 6.67303V2.58608C0.852842 2.06727 0.9542 1.61889 1.15692 1.24094C1.35963 0.862999 1.64824 0.572669 2.02275 0.369954C2.4007 0.163802 2.85251 0.0607268 3.3782 0.0607268H9.84104C10.3667 0.0607268 10.8185 0.163802 11.1965 0.369954C11.5744 0.572669 11.863 0.862999 12.0623 1.24094C12.265 1.61889 12.3664 2.06727 12.3664 2.58608V3.44161H11.0367V2.66854C11.0367 2.24593 10.9302 1.92812 10.7172 1.71509C10.5076 1.49863 10.1898 1.3904 9.76374 1.3904H3.46066C3.03118 1.3904 2.70992 1.49863 2.4969 1.71509C2.28731 1.92812 2.18252 2.24593 2.18252 2.66854V6.59573C2.18252 7.01834 2.28731 7.33615 2.4969 7.54918C2.70992 7.7622 3.03118 7.86871 3.46066 7.86871H4.09973C4.25434 7.86871 4.37116 7.90651 4.45018 7.9821C4.53265 8.05425 4.57388 8.17622 4.57388 8.34801V9.77561L6.18701 8.1934C6.31414 8.06627 6.42924 7.98038 6.53231 7.93571C6.63883 7.89105 6.78141 7.86871 6.96008 7.86871H7.41361L7.95476 9.19839ZM9.14528 10.2549C8.65396 10.2549 8.23135 10.1673 7.87745 9.99207C7.52699 9.81684 7.25728 9.56431 7.06831 9.23447C6.88277 8.90462 6.79 8.50778 6.79 8.04394V4.88982C6.79 4.4088 6.88277 3.9965 7.06831 3.65292C7.25728 3.30933 7.52699 3.04649 7.87745 2.86439C8.23135 2.67885 8.65396 2.58608 9.14528 2.58608H14.1341C14.6289 2.58608 15.0515 2.67885 15.402 2.86439C15.7524 3.04649 16.0204 3.30933 16.206 3.65292C16.3949 3.9965 16.4894 4.4088 16.4894 4.88982V8.04394C16.4894 8.50778 16.4001 8.90462 16.2214 9.23447C16.0428 9.56431 15.7851 9.81684 15.4484 9.99207C15.1116 10.1673 14.7062 10.2549 14.2321 10.2549H14.1496V11.3475C14.1496 11.6224 14.0775 11.8423 13.9332 12.0072C13.7888 12.1721 13.5913 12.2546 13.3405 12.2546C13.1824 12.2546 13.0141 12.2065 12.8354 12.1103C12.6567 12.0175 12.4729 11.8904 12.2839 11.7289L10.5677 10.2549H9.14528ZM9.33597 8.98708H10.5729C10.7172 8.98708 10.8615 9.01972 11.0058 9.08501C11.1501 9.14685 11.2841 9.2379 11.4078 9.35816L13.0158 10.8373V9.51277C13.0158 9.34441 13.0639 9.21557 13.1601 9.12624C13.2563 9.03347 13.38 8.98708 13.5312 8.98708H13.9486C14.3575 8.98708 14.6667 8.88057 14.8763 8.66755C15.0859 8.45453 15.1907 8.15045 15.1907 7.75533V5.09082C15.1907 4.69226 15.0859 4.38647 14.8763 4.17345C14.6667 3.96042 14.3575 3.85391 13.9486 3.85391H9.33597C8.92367 3.85391 8.61273 3.96042 8.40314 4.17345C8.19699 4.38647 8.09391 4.69226 8.09391 5.09082V7.75533C8.09391 8.15045 8.19699 8.45453 8.40314 8.66755C8.61273 8.88057 8.92367 8.98708 9.33597 8.98708Z" fill="#727272"/>
</svg>
