<svg width="14" height="17" viewBox="0 0 14 17" fill="none" xmlns="http://www.w3.org/2000/svg">
<path d="M3.30954 16.2151C2.5429 16.2151 1.9632 16.021 1.57041 15.633C1.17763 15.2449 0.981242 14.67 0.981242 13.9081V6.92318C0.981242 6.16601 1.17763 5.5934 1.57041 5.20535C1.9632 4.81257 2.5429 4.61618 3.30954 4.61618H5.36809V6.01458H3.39472C3.06346 6.01458 2.81028 6.10212 2.63518 6.27722C2.46482 6.44758 2.37964 6.70549 2.37964 7.05095V13.7874C2.37964 14.1328 2.46482 14.3908 2.63518 14.5611C2.81028 14.7362 3.06346 14.8238 3.39472 14.8238H11.3947C11.7212 14.8238 11.972 14.7362 12.1471 14.5611C12.3269 14.3908 12.4169 14.1328 12.4169 13.7874V7.05095C12.4169 6.70549 12.3269 6.44758 12.1471 6.27722C11.972 6.10212 11.7212 6.01458 11.3947 6.01458H9.42841V4.61618H11.487C12.2536 4.61618 12.8333 4.81257 13.2261 5.20535C13.6189 5.5934 13.8153 6.16601 13.8153 6.92318V13.9081C13.8153 14.6652 13.6189 15.2378 13.2261 15.6259C12.8333 16.0187 12.2536 16.2151 11.487 16.2151H3.30954ZM7.39825 11.6153C7.31307 11.6153 7.23025 11.6011 7.1498 11.5727C7.06936 11.5395 6.98417 11.4804 6.89426 11.3952L4.50918 9.09531C4.39087 8.97227 4.33172 8.83266 4.33172 8.6765C4.33172 8.51087 4.38614 8.376 4.49498 8.27189C4.60856 8.16778 4.74816 8.11572 4.91379 8.11572C5.09362 8.11572 5.24032 8.17961 5.35389 8.30738L6.34768 9.36505L6.80908 9.88324L6.73809 8.82557V1.47156C6.73809 1.29647 6.80198 1.14503 6.92975 1.01726C7.06226 0.889487 7.21842 0.825601 7.39825 0.825601C7.57808 0.825601 7.73188 0.889487 7.85965 1.01726C7.99216 1.14503 8.05841 1.29647 8.05841 1.47156V8.82557L7.98742 9.88324L8.44172 9.36505L9.43551 8.30738C9.55382 8.17961 9.70052 8.11572 9.87561 8.11572C10.0365 8.11572 10.1737 8.16778 10.2873 8.27189C10.4056 8.376 10.4648 8.51087 10.4648 8.6765C10.4648 8.83266 10.4033 8.97227 10.2802 9.09531L7.89514 11.3952C7.80996 11.4804 7.72715 11.5395 7.6467 11.5727C7.56625 11.6011 7.48343 11.6153 7.39825 11.6153Z" fill="#727272"/>
</svg>
