<svg width="16" height="16" viewBox="0 0 16 16" fill="none" xmlns="http://www.w3.org/2000/svg">
<path d="M8.74435 8.28265C8.74435 8.54287 8.53341 8.75381 8.27319 8.75381C8.01297 8.75381 7.80202 8.54287 7.80202 8.28265C7.80202 8.02243 8.01297 7.81148 8.27319 7.81148C8.53341 7.81148 8.74435 8.02243 8.74435 8.28265Z" fill="#1C1D1D"/>
<path d="M8.74435 8.28265C8.74435 8.54287 8.53341 8.75381 8.27319 8.75381C8.01297 8.75381 7.80202 8.54287 7.80202 8.28265C7.80202 8.02243 8.01297 7.81148 8.27319 7.81148M8.74435 8.28265C8.74435 8.02243 8.53341 7.81148 8.27319 7.81148M8.74435 8.28265H11.1002M8.27319 7.81148V4.82743M13.9272 8.28265C13.9272 11.4053 11.3958 13.9366 8.27319 13.9366C5.15058 13.9366 2.6192 11.4053 2.6192 8.28265C2.6192 5.16004 5.15058 2.62866 8.27319 2.62866C11.3958 2.62866 13.9272 5.16004 13.9272 8.28265Z" stroke="#1C1D1D" stroke-width="0.942331" stroke-linecap="round" stroke-linejoin="round"/>
</svg>
