<?xml version="1.0" encoding="UTF-8"?>
<svg id="_레이어_2" data-name="레이어 2" xmlns="http://www.w3.org/2000/svg" viewBox="0 0 1500 1500">
  <defs>
    <style>
      .cls-1 {
        fill: #fefefe;
      }

      .cls-2 {
        fill: #f5da4a;
      }

      .cls-3 {
        fill: #e9aa42;
      }
    </style>
  </defs>
  <g id="_레이어_3" data-name="레이어 3">
    <circle class="cls-1" cx="750" cy="750" r="750"/>
    <g>
      <path class="cls-2" d="M798.61,819.86l-222.06,222.06c-194.77-194.73-163.32-520,67.37-673.39-26.68,151.25,26.38,323.03,154.68,451.33Z"/>
      <polygon class="cls-2" points="813.31 64.17 846.4 124.65 906.88 157.74 846.4 190.81 813.31 251.3 780.24 190.81 719.75 157.74 780.24 124.65 813.31 64.17"/>
      <polygon class="cls-2" points="188.8 707.12 220.84 765.69 279.4 797.72 220.84 829.75 188.8 888.32 156.77 829.75 98.2 797.72 156.77 765.69 188.8 707.12"/>
      <polygon class="cls-2" points="1249.93 767.07 1268 800.1 1301.02 818.17 1268 836.23 1249.93 869.26 1231.87 836.23 1198.84 818.17 1231.87 800.1 1249.93 767.07"/>
      <polygon class="cls-2" points="945.3 582.5 961.16 611.49 990.15 627.35 961.16 643.2 945.3 672.19 929.45 643.2 900.45 627.35 929.45 611.49 945.3 582.5"/>
      <polygon class="cls-2" points="1202 379.09 1220.07 412.12 1253.1 430.19 1220.07 448.25 1202 481.28 1183.94 448.25 1150.91 430.19 1183.94 412.12 1202 379.09"/>
      <polygon class="cls-3" points="507.43 1247.41 526.87 1283.08 562.42 1302.6 526.87 1322.11 507.43 1357.79 487.99 1322.11 452.44 1302.6 487.99 1283.08 507.43 1247.41"/>
      <path class="cls-3" d="M1249.95,974.55c-153.18,230.31-478.32,262.49-673.39,67.37l222.06-222.06c131.05,131.09,303.82,180.76,451.33,154.68Z"/>
    </g>
  </g>
</svg>